<svg width="128" height="128" viewBox="0 0 128 128" fill="none" xmlns="http://www.w3.org/2000/svg">
  <rect width="128" height="128" rx="28" fill="#1a1a1a"/>
  <g transform="translate(20, 18) scale(0.46)">
    <path fill-rule="evenodd" fill="#ffffff" d="M161.88,162.13c-4.21,12.41-13.95,22.15-26.36,26.36-6.6,2.24-14.51,2.24-26.92,2.24h-26.48c-12.4,0-20.32,0-26.92-2.24-12.4-4.21-22.15-13.95-26.36-26.36-.78-2.31-1.29-4.77-1.62-7.53-.49-4.12-.74-6.18.3-8.45,1.04-2.27,2.93-3.54,6.71-6.09,17.59-11.83,36.24-20.3,61.13-20.3,21.7,0,46.56,8.64,62.73,20.85,2.81,2.12,4.21,3.18,5.14,5.31.93,2.13.75,3.93.39,7.53-.32,3.24-.86,6.07-1.75,8.69Z"/>
    <path fill-rule="evenodd" fill="#ffffff" d="M95.14,0h.45c3.94,0,7.23,0,9.94.18,2.81.19,5.47.61,8.05,1.67,5.98,2.48,10.73,7.22,13.2,13.2,1.07,2.58,1.48,5.23,1.67,8.05.18,2.7.18,5.99.18,9.94h0v2.14c21.16,11.72,35.48,34.28,35.48,60.18v25.63c0,3.07,0,4.6-.92,5.11-.92.5-2.25-.35-4.91-2.06-17.24-11.07-39.2-17.6-62.92-17.6s-45.67,6.52-62.92,17.6c-2.66,1.71-3.99,2.56-4.91,2.06-.92-.5-.92-2.04-.92-5.11h0v-25.63c0-25.9,14.32-48.46,35.48-60.18v-2.14c0-3.94,0-7.23.18-9.94.19-2.81.61-5.47,1.67-8.05,2.48-5.98,7.22-10.73,13.2-13.2,2.58-1.07,5.23-1.48,8.05-1.67C87.9,0,91.2,0,95.14,0h0ZM115.17,24.01c.1,1.48.14,3.25.15,5.54-6.32-1.91-13.01-2.94-19.95-2.94s-13.64,1.03-19.95,2.94c.01-2.29.05-4.06.15-5.54.15-2.14.41-3.18.69-3.86,1.13-2.72,3.28-4.88,6-6,.68-.28,1.72-.54,3.86-.69,2.2-.15,5.03-.15,9.26-.15s7.06,0,9.26.15c2.14.15,3.17.41,3.86.69,2.72,1.13,4.88,3.28,6,6,.28.68.55,1.72.69,3.86ZM86.49,70.97c-3.67,0-6.65,2.98-6.65,6.65s2.98,6.65,6.65,6.65h17.74c3.67,0,6.65-2.98,6.65-6.65s-2.98-6.65-6.65-6.65h-17.74Z"/>
    <path fill="#ffffff" d="M15.52,136.66v-27.53c0-2.9,0-4.34-1.07-4.81-1.07-.46-2.05.46-4.01,2.31-6.43,6.07-10.45,14.67-10.45,24.2v11.41c0,8.65,5.02,16.12,12.3,19.67,2.09,1.02,3.13,1.52,4,.89s.65-1.99.23-4.69c-1.02-6.46-1.01-13.58-1.01-21.44Z"/>
    <path fill="#ffffff" d="M175.2,136.66c0,7.86.01,14.98-1.01,21.44-.42,2.7-.64,4.05.23,4.69.86.64,1.91.13,4-.89,7.28-3.55,12.3-11.02,12.3-19.67v-11.41c0-9.54-4.01-18.14-10.44-24.2-1.96-1.85-2.94-2.77-4.01-2.31s-1.07,1.91-1.07,4.81v27.53Z"/>
  </g>
</svg>
