<?xml version="1.0" encoding="UTF-8"?>
<svg id="Layer_2" data-name="Layer 2" xmlns="http://www.w3.org/2000/svg" viewBox="0 0 256.39 256.38">
  <defs>
    <style>
      .cls-1 {
        fill: #231f20;
      }

      .cls-2 {
        fill: #ef4371;
      }
    </style>
  </defs>
  <g id="Layer_1-2" data-name="Layer 1">
    <g>
      <path class="cls-2" d="M105.32,245.38c-13.34,0-21.17-11.25-26.5-21.06-5.86-10.78-11.78-25.91-19.97-46.85l-27.86-71.2c-8.71-22.26-15-38.35-18.03-51.22-5.08-21.62,1.08-30.87,6.15-35.95,5.38-5.38,12.53-8.11,21.24-8.11,14.85,0,34.07,7.52,65.92,19.99l71.19,27.86c21.25,8.31,36.6,14.32,47.41,20.28,5.83,3.21,21.31,11.75,20.48,27.4-.84,15.66-17.23,22.51-23.41,25.1-11.46,4.79-27.47,9.16-49.64,15.2-10.52,2.87-16.32,4.45-18.68,6.81-2.36,2.36-3.94,8.15-6.81,18.67-6.05,22.18-10.42,38.2-15.21,49.66-2.58,6.17-9.44,22.57-25.09,23.41-.4.02-.8.03-1.2.03Z"/>
      <path class="cls-1" d="M40.35,22c12.77,0,32.21,7.61,61.92,19.23l71.19,27.86c41.06,16.07,61.59,24.1,60.91,36.84-.68,12.74-22.11,18.59-64.96,30.27-12.76,3.48-19.14,5.22-23.56,9.64-4.42,4.42-6.16,10.8-9.64,23.56-11.69,42.85-17.53,64.28-30.27,64.96-.2.01-.41.02-.61.02-12.39,0-20.43-20.53-36.23-60.93l-27.86-71.19C24.41,59.28,16,37.78,26.89,26.89c3.37-3.37,7.75-4.89,13.46-4.89M40.35,0h0c-11.73,0-21.5,3.81-29.02,11.33C-4.82,27.48.5,50.13,2.25,57.57c3.2,13.64,9.62,30.03,18.49,52.71l27.86,71.19c8.34,21.31,14.37,36.71,20.56,48.1,3.6,6.63,14.57,26.81,36.17,26.81.59,0,1.19-.02,1.78-.05,22.56-1.21,31.67-22.99,34.66-30.15,5.07-12.12,9.51-28.42,15.67-50.99,1.52-5.56,3.08-11.28,4.11-13.66,2.38-1.03,8.1-2.59,13.66-4.11,22.57-6.16,38.88-10.6,50.99-15.67,7.16-2.99,28.94-12.1,30.15-34.66,1.2-22.54-19.39-33.89-26.15-37.62-11.44-6.3-27.07-12.42-48.71-20.89l-71.19-27.86C77.22,7.81,57.27,0,40.35,0h0Z"/>
    </g>
  </g>
</svg>