<?xml version="1.0" encoding="UTF-8"?>
<svg id="Layer_2" data-name="Layer 2" xmlns="http://www.w3.org/2000/svg" viewBox="0 0 916.37 309.75">
  <defs>
    <style>
      .cls-1 {
        fill: #231f20;
      }

      .cls-2 {
        fill: #ef4371;
      }
    </style>
  </defs>
  <g id="Layer_1-2" data-name="Layer 1">
    <g>
      <g>
        <path class="cls-2" d="M80.84,246.26c-18.72,0-46.61-2.89-63.59-11.02-3.82-1.83-6.25-5.69-6.25-9.92v-45.86c0-3.75,1.91-7.23,5.06-9.26,1.6-1.03,3.41-1.61,5.25-1.72-6.86-8.1-10.31-18.36-10.31-30.73,0-19.59,8.61-35.81,24.9-46.93,15.29-10.44,36.27-15.73,62.35-15.73,24.22,0,46.63,4.32,59.95,11.56,4.19,2.28,6.43,6.99,5.56,11.67l-8.01,43.09c-.41,2.19-1.46,4.18-2.99,5.72,10.75,8.78,16.16,20.97,16.16,36.47,0,19.66-8.58,35.89-24.8,46.94-15.32,10.43-36.61,15.72-63.27,15.72Z"/>
        <path class="cls-1" d="M98.24,86.09c19.89,0,41.99,3.31,54.7,10.22l-8.01,43.09c-14.09-6.63-28.45-9.39-45.58-9.39-9.39,0-15.19.83-15.19,4.7,0,3.31,4.14,4.14,15.47,6.08l15.75,2.76c26.8,4.7,42.54,16.02,42.54,40.06,0,32.04-27.62,51.66-77.07,51.66-20.99,0-45.58-3.59-58.84-9.94v-45.86c16.3,7.46,34.81,11.88,58.56,11.88,8.29,0,15.19-.55,15.19-4.7,0-3.31-4.14-4.14-15.47-6.08l-15.75-2.76c-26.8-4.7-42.54-16.02-42.54-40.06,0-32.04,28.18-51.66,76.24-51.66M98.24,64.09c-28.34,0-51.4,5.94-68.55,17.64C10.55,94.8,0,114.69,0,137.75c0,7.68,1.23,17.36,5.79,26.84-3.68,4.01-5.79,9.3-5.79,14.87v45.86c0,8.47,4.86,16.18,12.49,19.84,18.65,8.93,48.47,12.1,68.35,12.1,28.91,0,52.28-5.93,69.46-17.63,19.1-13,29.61-32.9,29.61-56.03,0-10.98-2.51-26.03-13.67-38.76.12-.47.22-.94.31-1.41l8.01-43.09c1.74-9.37-2.75-18.8-11.12-23.35-22.01-11.96-55.47-12.89-65.2-12.89h0Z"/>
      </g>
      <g>
        <path class="cls-2" d="M268.69,242.95c-6.08,0-11-4.92-11-11v-71c0-9.07-1.36-11.74-1.72-12.29-.23-.07-.81-.19-1.92-.19-2.01,0-4.01.43-5.85,1.24v82.24c0,6.08-4.92,11-11,11h-61.33c-6.08,0-11-4.92-11-11V89.4c0-6.08,4.92-11,11-11h45.58c3.74,0,7.22,1.9,9.25,5.04l1.85,2.86c12.6-7.54,26.34-11.22,41.67-11.22,22.06,0,39.06,7.37,50.52,21.9,10.8,13.69,16.28,33.73,16.28,59.54v75.42c0,6.08-4.92,11-11,11h-61.33Z"/>
        <path class="cls-1" d="M274.21,86.09c37.29,0,55.8,23.76,55.8,70.44v75.42h-61.33v-71c0-17.4-4.42-23.48-14.64-23.48-6.08,0-12.16,2.21-16.85,6.35v88.12h-61.33V89.4h45.58l8.01,12.43c12.43-9.94,26.52-15.75,44.75-15.75M274.21,64.09c-14.04,0-26.9,2.73-38.85,8.27-3.88-3.16-8.77-4.96-13.92-4.96h-45.58c-12.15,0-22,9.85-22,22v142.54c0,12.15,9.85,22,22,22h61.33c6.17,0,11.75-2.54,15.75-6.64,4,4.09,9.57,6.64,15.75,6.64h61.33c12.15,0,22-9.85,22-22v-75.42c0-28.35-6.27-50.67-18.64-66.35-9.39-11.9-27.27-26.09-59.16-26.09h0Z"/>
      </g>
      <g>
        <path class="cls-2" d="M394.37,246.26c-16.86,0-31.18-4.85-41.42-14.03-10.46-9.37-15.99-22.46-15.99-37.85,0-19.71,8.91-32.46,22.27-40.68-1.01-1.27-1.74-2.77-2.11-4.39l-10.77-47.24c-1.16-5.07,1.39-10.25,6.11-12.43,19.44-8.97,46.72-14.55,71.18-14.55,25.97,0,46.29,6.32,60.42,18.77,14.5,12.79,21.85,31.27,21.85,54.94v83.15c0,6.08-4.92,11-11,11h-45.58c-4.11,0-7.88-2.29-9.77-5.95l-1.84-3.56c-11.99,8.26-27.13,12.82-43.36,12.82Z"/>
        <path class="cls-1" d="M423.66,86.09c46.69,0,71.27,21.82,71.27,62.71v83.15h-45.58l-8.29-16.02c-11.88,13.54-29.56,19.34-46.69,19.34-29.01,0-46.41-16.3-46.41-40.88,0-29.28,24.59-43.92,85.91-44.2v-.55c0-10.5-8.29-14.64-23.48-14.64-14.09,0-27.62,3.59-42.54,11.88l-10.77-47.24c17.96-8.29,43.92-13.54,66.57-13.54M413.44,197.97c6.08,0,16.02-1.93,20.44-6.08v-13.54c-24.31.55-31.49,4.14-31.49,11.6,0,4.97,3.31,8.01,11.05,8.01M423.66,64.09c-25.96,0-55,5.96-75.79,15.56-9.44,4.36-14.54,14.73-12.23,24.87l10.32,45.24c-13.13,11-19.99,26.19-19.99,44.62s6.98,34.69,19.65,46.05c12.29,11.02,29.15,16.84,48.76,16.84,14.43,0,28.16-3.2,40.06-9.14,4,3.69,9.3,5.83,14.91,5.83h45.58c12.15,0,22-9.85,22-22v-83.15c0-33.58-13.91-52.9-25.58-63.19-16.19-14.28-38.97-21.52-67.69-21.52h0Z"/>
      </g>
      <g>
        <path class="cls-2" d="M585.53,298.75c-21.68,0-40.6-3.05-54.72-8.83-4.13-1.69-6.83-5.71-6.83-10.18v-45.86c0-3.72,1.88-7.19,5.01-9.22.91-.59,1.88-1.03,2.89-1.33-17.22-13.43-26.96-35.88-26.96-64.86,0-25.12,7.4-46.17,21.41-60.87,14.03-14.73,34.02-22.51,57.83-22.51,15.94,0,30.19,3.47,42.51,10.32l2.09-2.71c2.08-2.71,5.3-4.29,8.72-4.29h36.19c6.08,0,11,4.92,11,11v126.8c0,26.72-8.55,47.42-25.42,61.51-16.7,13.96-41.5,21.03-73.7,21.03ZM598.24,143.77c-3.87,0-9.17,0-9.17,14.69,0,10.27,2.1,10.27,5.58,10.27,2.25,0,4.66-.41,6.68-1v-23.68c-.99-.19-2.01-.28-3.09-.28Z"/>
        <path class="cls-1" d="M584.15,86.09c18.51,0,33.43,5.25,45.03,14.09l8.29-10.77h36.19v126.8c0,46.13-27.9,71.55-88.12,71.55-21,0-38.4-3.04-50.55-8.01v-45.86c12.43,5.53,24.86,9.39,42.82,9.39,23.21,0,34.53-6.63,34.53-20.72v-6.35c-8.01,6.08-20.17,10.22-35.64,10.22-37.85,0-60.77-25.14-60.77-67.96,0-45.58,26.24-72.38,68.23-72.38M594.65,179.74c6.08,0,13.54-1.93,17.68-5.25v-37.85c-3.87-2.21-8.29-3.87-14.09-3.87-13.26,0-20.17,8.56-20.17,25.69,0,14.64,5.25,21.27,16.58,21.27M584.15,64.09c-26.89,0-49.64,8.96-65.79,25.92-15.99,16.78-24.44,40.46-24.44,68.46,0,26.46,7.55,48.85,21.83,64.73-1.79,3.22-2.77,6.88-2.77,10.68v45.86c0,8.93,5.4,16.98,13.67,20.36,15.43,6.31,35.79,9.65,58.88,9.65,34.85,0,62.02-7.94,80.75-23.59,9.99-8.35,17.56-18.82,22.49-31.13,4.57-11.39,6.88-24.45,6.88-38.83v-126.8c0-12.15-9.85-22-22-22h-36.19c-4.87,0-9.55,1.61-13.34,4.5-12.01-5.2-25.39-7.82-39.98-7.82h0Z"/>
      </g>
      <g>
        <path class="cls-2" d="M699.61,242.95c-6.08,0-11-4.92-11-11V89.4c0-4.49,2.69-8.35,6.55-10.06-8.45-7-12.9-16.96-12.9-28.89s4.79-22.63,13.86-29.66c8.39-6.5,19.88-9.8,34.15-9.8s25.76,3.3,34.15,9.8c9.07,7.03,13.86,17.28,13.86,29.66s-4.46,21.89-12.9,28.89c3.86,1.71,6.55,5.57,6.55,10.06v142.54c0,6.08-4.92,11-11,11h-61.33Z"/>
        <path class="cls-1" d="M730.28,22c23.76,0,37.02,10.5,37.02,28.45s-13.26,28.45-37.02,28.45-37.02-10.5-37.02-28.45,13.26-28.45,37.02-28.45M760.94,89.4v142.54h-61.33V89.4h61.33M730.28,0c-16.77,0-30.53,4.07-40.89,12.1-11.69,9.06-18.13,22.68-18.13,38.35,0,10.85,3.08,20.71,8.85,28.76-1.6,3.05-2.5,6.52-2.5,10.19v142.54c0,12.15,9.85,22,22,22h61.33c12.15,0,22-9.85,22-22V89.4c0-3.68-.9-7.15-2.5-10.19,5.77-8.05,8.85-17.91,8.85-28.76,0-15.68-6.44-29.3-18.13-38.35-10.37-8.03-24.12-12.1-40.89-12.1h0Z"/>
      </g>
      <g>
        <path class="cls-2" d="M855.69,246.26c-24.87,0-42.82-6.44-54.86-19.69-11.75-12.93-17.47-32.14-17.47-58.71v-16.9h-8.89c-6.08,0-11-4.92-11-11v-50.55c0-6.08,4.92-11,11-11h8.89v-20.77c0-5.18,3.61-9.66,8.68-10.75l61.33-13.26c.77-.17,1.55-.25,2.32-.25,2.49,0,4.93.85,6.91,2.44,2.59,2.09,4.09,5.23,4.09,8.56v34.03h27.68c6.08,0,11,4.92,11,11v50.55c0,6.08-4.92,11-11,11h-27.68v15.8c0,3.18.39,4.72.6,5.32.42.11,1.27.26,2.77.26,6.13,0,16.5-1.79,20.68-3.25,1.18-.41,2.41-.62,3.63-.62,2.25,0,4.48.69,6.37,2.03,2.91,2.06,4.63,5.41,4.63,8.97v48.62c0,4.31-2.52,8.23-6.45,10.01-12.09,5.5-26.23,8.17-43.23,8.17Z"/>
        <path class="cls-1" d="M855.69,44.38v45.03h38.67v50.55h-38.67v26.8c0,11.88,4.14,16.57,14.36,16.57,7.18,0,18.79-1.93,24.31-3.87v48.62c-9.12,4.14-21.27,7.18-38.67,7.18-42.82,0-61.33-20.44-61.33-67.4v-27.9h-19.89v-50.55h19.89v-31.77l61.33-13.26M855.69,22.38c-1.55,0-3.11.16-4.65.5l-61.33,13.26c-10.12,2.19-17.35,11.14-17.35,21.5v9.87c-11.16,1.06-19.89,10.46-19.89,21.9v50.55c0,11.44,8.73,20.84,19.89,21.9v6c0,29.44,6.65,51.06,20.33,66.11,14.25,15.67,34.85,23.29,63,23.29,18.6,0,34.23-2.99,47.78-9.15,7.85-3.57,12.9-11.4,12.9-20.03v-48.62c0-7.13-3.45-13.82-9.27-17.94-.97-.69-1.99-1.29-3.04-1.81,7.29-3.58,12.31-11.08,12.31-19.75v-50.55c0-12.15-9.85-22-22-22h-16.67v-23.03c0-6.65-3.01-12.94-8.18-17.12-3.95-3.19-8.83-4.88-13.82-4.88h0Z"/>
      </g>
    </g>
  </g>
</svg>